Coordinates
version=1
nRows=10
nColumns=40
inDegrees=yes

Units are S.I. units (second, meters, Newtons, ...)
Angles are in degrees.

endheader
time	pelvis_tilt	pelvis_list	pelvis_rotation	pelvis_tx	pelvis_ty	pelvis_tz	hip_flexion_r	hip_adduction_r	hip_rotation_r	knee_angle_r	knee_angle_r_beta	ankle_angle_r	subtalar_angle_r	mtp_angle_r	hip_flexion_l	hip_adduction_l	hip_rotation_l	knee_angle_l	knee_angle_l_beta	ankle_angle_l	subtalar_angle_l	mtp_angle_l	lumbar_extension	lumbar_bending	lumbar_rotation	arm_flex_r	arm_add_r	arm_rot_r	elbow_flex_r	pro_sup_r	wrist_flex_r	wrist_dev_r	arm_flex_l	arm_add_l	arm_rot_l	elbow_flex_l	pro_sup_l	wrist_flex_l	wrist_dev_l
     15.12314286	     -6.15587005	     -4.56713972	      3.72356442	      0.76804550	      0.92906520	      0.52066960	     13.64035080	      3.21806289	    -15.33545032	     15.16370499	     15.16370499	      9.69417171	      1.26530786	     -5.72069572	     34.17116339	    -10.17689503	      2.81106564	     40.48037521	     40.48037521	     10.47991446	    -15.24295398	      9.04004824	    -10.42469332	      6.59533713	      3.23783691	     32.01121362	    -20.54695325	      1.59839229	     72.78410975	     44.95575887	      0.00000000	      0.00000000	      0.22791606	     -7.35850079	     -5.54146844	     29.55586765	     46.70886869	      0.00000000	      0.00000000
     15.13628571	     -6.09569470	     -4.23429145	      3.94793614	      0.76632657	      0.92946750	      0.52055737	     12.95606778	      2.92928905	    -15.39293194	     14.69563688	     14.69563688	      9.90298981	      1.47598002	     -5.73486214	     33.75291118	     -9.71008419	      2.42695244	     36.30156631	     36.30156631	     10.40897758	    -14.40586409	      9.33784331	    -10.77454283	      6.23548080	      2.53690817	     34.04796151	    -19.74313262	      1.85311414	     75.59143269	     44.86720868	      0.00000000	      0.00000000	     -0.90687571	     -7.53726432	     -5.48891061	     28.56340142	     46.67563401	      0.00000000	      0.00000000
     15.14942857	     -6.25349243	     -4.33131370	      4.18288346	      0.76454654	      0.92910253	      0.52048701	     12.69787081	      3.03224675	    -15.65295500	     14.53115426	     14.53115426	     10.11305512	      1.63467787	     -5.83121615	     33.76495850	     -9.64060498	      2.25301951	     32.48173150	     32.48173150	     10.38967496	    -13.17060592	      9.45360174	    -10.71890123	      6.36040238	      2.47166178	     35.77422482	    -19.68877900	      2.05279662	     77.74655881	     44.80250015	      0.00000000	      0.00000000	     -1.83764246	     -7.54617080	     -5.43094760	     28.00191973	     46.64317589	      0.00000000	      0.00000000
     15.16257143	     -6.38338409	     -4.48006287	      4.39597753	      0.76288679	      0.92867809	      0.52029999	     12.41798547	      3.18084876	    -15.92745374	     14.38942783	     14.38942783	     10.34671818	      1.81740934	     -5.90695157	     33.73396803	     -9.61567752	      2.04580623	     28.86680219	     28.86680219	     10.28013083	    -11.75314590	      9.48454088	    -10.73007334	      6.56231391	      2.46985224	     37.38364993	    -19.70725752	      2.29601571	     79.99962195	     44.73551730	      0.00000000	      0.00000000	     -2.74668327	     -7.53159824	     -5.30143825	     27.64276523	     46.59648653	      0.00000000	      0.00000000
     15.17571429	     -6.61480432	     -4.68478520	      4.59758479	      0.76123948	      0.92800707	      0.51998347	     12.28715244	      3.38017274	    -16.12342146	     14.31089038	     14.31089038	     10.58066013	      1.82990988	     -5.98538286	     33.87237984	     -9.60684816	      1.83646440	     25.62899519	     25.62899519	     10.12855186	    -10.31239183	      9.83762453	    -10.50505967	      6.82406080	      2.68981291	     39.04890521	    -19.76447426	      2.22724911	     81.36073876	     44.70417684	      0.00000000	      0.00000000	     -3.52839933	     -7.44237730	     -5.20985278	     27.43494415	     46.56265915	      0.00000000	      0.00000000
     15.18885714	     -6.57217589	     -4.79526582	      4.77638615	      0.76004812	      0.92782679	      0.51954834	     11.69822066	      3.52024893	    -16.36975082	     14.00508387	     14.00508387	     10.87098462	      2.19889323	     -5.93358046	     33.60652926	     -9.57955644	      1.29765362	     22.63196831	     22.63196831	      9.79764398	     -8.65284399	      9.80772260	    -10.70671257	      7.02465065	      2.48111857	     40.42357586	    -19.44433595	      2.63171918	     84.26530284	     44.61650667	      0.00000000	      0.00000000	     -4.68925332	     -7.53698500	     -4.80132965	     27.55200019	     46.45809868	      0.00000000	      0.00000000
     15.20200000	     -6.66506676	     -4.91624353	      4.91462817	      0.75882932	      0.92742633	      0.51902161	     11.33711096	      3.65566559	    -16.46573571	     13.84447946	     13.84447946	     11.13298842	      2.28560385	     -5.94230361	     33.52193658	     -9.50826341	      0.79717025	     20.08648292	     20.08648292	      9.40872411	     -7.31700895	     10.14998962	    -10.61595138	      7.18042388	      2.60414444	     41.78415220	    -19.26925919	      2.62607229	     85.73956196	     44.58204693	      0.00000000	      0.00000000	     -5.53427986	     -7.52225034	     -4.53220457	     27.58312183	     46.39112495	      0.00000000	      0.00000000
     15.21514286	     -6.67602408	     -5.14141877	      5.06031913	      0.75789142	      0.92703687	      0.51838979	     10.80729314	      3.90879821	    -16.70501749	     13.56183422	     13.56183422	     11.48465860	      2.67415520	     -5.67687629	     33.49346386	     -9.56972818	      0.14990398	     18.21153813	     18.21153813	      8.79164756	     -5.99639965	      9.62419046	    -10.65956988	      7.47419665	      2.81596805	     42.77746077	    -19.38761758	      2.74793155	     88.50788824	     44.53913972	      0.00000000	      0.00000000	     -6.96563308	     -7.81796224	     -2.68390423	     29.24521378	     46.03106117	      0.00000000	      0.00000000
     15.22828571	     -6.67169097	     -5.29964987	      5.16394415	      0.75708806	      0.92674641	      0.51764727	     10.24975896	      4.11408731	    -16.74300845	     13.26673682	     13.26673682	     11.72941468	      2.77916948	     -5.65895628	     33.39298280	     -9.52899039	     -0.41247965	     16.75211408	     16.75211408	      8.27057752	     -5.20246832	      9.91781948	    -10.61756264	      7.67734202	      2.72217511	     44.07799765	    -18.80849911	      2.67890686	     89.68064387	     44.51849486	      0.00000000	      0.00000000	     -7.78731832	     -7.80375929	     -2.22223505	     29.11917573	     45.94232671	      0.00000000	      0.00000000
     15.24142857	     -6.68425112	     -5.49502280	      5.27275373	      0.75647377	      0.92637168	      0.51674549	      9.68516317	      4.34761079	    -16.83587875	     12.94328346	     12.94328346	     11.96336479	      2.95394654	     -5.64127593	     33.39137196	     -9.51404891	     -0.93793182	     15.91651635	     15.91651635	      7.75308708	     -4.64625827	     10.04942486	    -10.49103538	      7.94407751	      2.74892662	     45.25567190	    -18.38166571	      2.64089422	     90.82432833	     44.49452624	      0.00000000	      0.00000000	     -8.55119133	     -7.74326827	     -1.86422941	     29.16787599	     45.87147778	      0.00000000	      0.00000000
